<?xml version="1.0" encoding="UTF-8" standalone="no"?>
<svg
   xmlns:dc="http://purl.org/dc/elements/1.1/"
   xmlns:cc="http://creativecommons.org/ns#"
   xmlns:rdf="http://www.w3.org/1999/02/22-rdf-syntax-ns#"
   xmlns:svg="http://www.w3.org/2000/svg"
   xmlns="http://www.w3.org/2000/svg"
   viewBox="0 0 571.84003 210.56"
   height="210.56"
   width="571.84003"
   xml:space="preserve"
   id="svg2"
   version="1.1"><metadata
     id="metadata8"><rdf:RDF><cc:Work
         rdf:about=""><dc:format>image/svg+xml</dc:format><dc:type
           rdf:resource="http://purl.org/dc/dcmitype/StillImage" /></cc:Work></rdf:RDF></metadata><defs
     id="defs6"><clipPath
       id="clipPath18"
       clipPathUnits="userSpaceOnUse"><path
         style="clip-rule:evenodd"
         id="path16"
         d="M 0,0 H 1788 V 658.33337 H 0 Z" /></clipPath><clipPath
       id="clipPath30"
       clipPathUnits="userSpaceOnUse"><path
         style="clip-rule:evenodd"
         id="path28"
         d="M 3.1250002,0 H 1784.3751 V 658.33337 H 3.1250002 Z" /></clipPath></defs><g
     transform="matrix(0.31999998,0,0,0.31999998,0,7.9306666e-6)"
     id="g10"><g
       id="g12"><g
         clip-path="url(#clipPath18)"
         id="g14"><g
           transform="scale(3.1250002)"
           id="g20"><path
             id="path22"
             style="fill:#ffffff;fill-opacity:1;fill-rule:nonzero;stroke:none"
             d="M 0,0 H 572 V 210 H 0 Z" /></g></g></g><g
       id="g24"><g
         clip-path="url(#clipPath30)"
         id="g26"><g
           transform="matrix(3.1022513,0,0,3.1022513,-766.19281,-809.66486)"
           id="g32"><path
             id="path34"
             style="fill:none;stroke:#000000;stroke-width:1;stroke-linecap:butt;stroke-linejoin:miter;stroke-miterlimit:10;stroke-dasharray:none;stroke-opacity:1"
             d="m 320,320 v -50 h 115 v 75 h 33.63" /><path
             id="path36"
             style="fill:#000000;fill-opacity:1;fill-rule:nonzero;stroke:none"
             d="m 473.88,345 -7,3.5 1.75,-3.5 -1.75,-3.5 z" /><path
             id="path38"
             style="fill:none;stroke:#000000;stroke-width:1;stroke-linecap:butt;stroke-linejoin:miter;stroke-miterlimit:10;stroke-dasharray:none;stroke-opacity:1"
             d="m 473.88,345 -7,3.5 1.75,-3.5 -1.75,-3.5 z" /><path
             id="path40"
             style="fill:#dae8fc;fill-opacity:1;fill-rule:nonzero;stroke:none"
             d="m 257.5,320 h 125 c 0.49246,0 0.98016,0.048 1.46317,0.1441 0.48294,0.0961 0.9519,0.23835 1.40689,0.42679 0.45495,0.18845 0.88717,0.41947 1.29663,0.69306 0.40948,0.27359 0.78833,0.5845 1.13656,0.93274 0.34821,0.3482 0.65909,0.72705 0.93268,1.13653 0.27359,0.40946 0.50461,0.84165 0.69309,1.29663 0.18844,0.45499 0.33072,0.92395 0.42681,1.40695 0.0961,0.48301 0.14414,0.97074 0.14417,1.4632 v 35 c -3e-5,0.49243 -0.0481,0.98013 -0.14417,1.46313 -0.0961,0.48301 -0.23837,0.952 -0.42681,1.40696 -0.18848,0.45495 -0.4195,0.88717 -0.69309,1.29666 -0.27359,0.40945 -0.58447,0.7883 -0.93268,1.13653 -0.34823,0.34821 -0.72708,0.65909 -1.13656,0.93268 -0.40946,0.27359 -0.84168,0.50464 -1.29663,0.69309 -0.45499,0.18844 -0.92395,0.33072 -1.40693,0.42682 -0.48297,0.0961 -0.97067,0.1441 -1.46313,0.14413 h -125 c -0.49246,-3e-5 -0.98022,-0.0481 -1.46323,-0.14413 -0.48298,-0.0961 -0.95196,-0.23838 -1.40693,-0.42682 -0.45497,-0.18845 -0.88719,-0.41947 -1.29666,-0.69306 -0.40944,-0.27359 -0.78829,-0.5845 -1.13651,-0.93271 -0.34822,-0.34823 -0.65913,-0.72708 -0.93274,-1.13653 -0.27359,-0.40949 -0.50461,-0.84171 -0.69307,-1.29666 -0.18846,-0.45496 -0.33072,-0.92395 -0.42679,-1.40696 -0.096,-0.483 -0.14409,-0.9707 -0.14407,-1.46313 v -35 c -2e-5,-0.49246 0.048,-0.98019 0.14407,-1.4632 0.0961,-0.483 0.23833,-0.95196 0.42678,-1.40695 0.18846,-0.45498 0.41948,-0.8872 0.69307,-1.29666 0.2736,-0.40945 0.58453,-0.7883 0.93275,-1.1365 0.34822,-0.34824 0.72707,-0.65915 1.13651,-0.93274 0.40947,-0.27359 0.84169,-0.50461 1.29666,-0.69306 0.45497,-0.18844 0.92395,-0.33072 1.40696,-0.42679 C 256.51981,320.04803 257.00754,320 257.5,320 Z" /><path
             id="path42"
             style="fill:none;stroke:#6c8ebf;stroke-width:1;stroke-linecap:butt;stroke-linejoin:miter;stroke-miterlimit:10;stroke-dasharray:none;stroke-opacity:1"
             d="m 257.5,320 h 125 c 0.49246,0 0.98016,0.048 1.46317,0.1441 0.48294,0.0961 0.9519,0.23835 1.40689,0.42679 0.45495,0.18845 0.88717,0.41947 1.29663,0.69306 0.40948,0.27359 0.78833,0.5845 1.13656,0.93274 0.34821,0.3482 0.65909,0.72705 0.93268,1.13653 0.27359,0.40946 0.50461,0.84165 0.69309,1.29663 0.18844,0.45499 0.33072,0.92395 0.42681,1.40695 0.0961,0.48301 0.14414,0.97074 0.14417,1.4632 v 35 c -3e-5,0.49243 -0.0481,0.98013 -0.14417,1.46313 -0.0961,0.48301 -0.23837,0.952 -0.42681,1.40696 -0.18848,0.45495 -0.4195,0.88717 -0.69309,1.29666 -0.27359,0.40945 -0.58447,0.7883 -0.93268,1.13653 -0.34823,0.34821 -0.72708,0.65909 -1.13656,0.93268 -0.40946,0.27359 -0.84168,0.50464 -1.29663,0.69309 -0.45499,0.18844 -0.92395,0.33072 -1.40693,0.42682 -0.48297,0.0961 -0.97067,0.1441 -1.46313,0.14413 h -125 c -0.49246,-3e-5 -0.98022,-0.0481 -1.46323,-0.14413 -0.48298,-0.0961 -0.95196,-0.23838 -1.40693,-0.42682 -0.45497,-0.18845 -0.88719,-0.41947 -1.29666,-0.69306 -0.40944,-0.27359 -0.78829,-0.5845 -1.13651,-0.93271 -0.34822,-0.34823 -0.65913,-0.72708 -0.93274,-1.13653 -0.27359,-0.40949 -0.50461,-0.84171 -0.69307,-1.29666 -0.18846,-0.45496 -0.33072,-0.92395 -0.42679,-1.40696 -0.096,-0.483 -0.14409,-0.9707 -0.14407,-1.46313 v -35 c -2e-5,-0.49246 0.048,-0.98019 0.14407,-1.4632 0.0961,-0.483 0.23833,-0.95196 0.42678,-1.40695 0.18846,-0.45498 0.41948,-0.8872 0.69307,-1.29666 0.2736,-0.40945 0.58453,-0.7883 0.93275,-1.1365 0.34822,-0.34824 0.72707,-0.65915 1.13651,-0.93274 0.40947,-0.27359 0.84169,-0.50461 1.29666,-0.69306 0.45497,-0.18844 0.92395,-0.33072 1.40696,-0.42679 C 256.51981,320.04803 257.00754,320 257.5,320 Z" /></g><g
           transform="matrix(3.1022513,0,0,3.1022513,-767.74396,-811.21594)"
           id="g44"><text
             id="text48"
             style="font-variant:normal;font-weight:normal;font-size:12px;font-family:LiberationMono;-inkscape-font-specification:LiberationMono;writing-mode:lr-tb;fill:#000000;fill-opacity:1;fill-rule:nonzero;stroke:none"
             transform="translate(294.78125,348)"><tspan
               id="tspan46"
               y="0"
               x="0 7.2011719 14.402344 21.603516 28.804688 36.005859 43.207031">Encoder</tspan></text>
</g><g
           transform="matrix(3.1022513,0,0,3.1022513,-766.19281,-809.66486)"
           id="g50"><path
             id="path52"
             style="fill:none;stroke:#000000;stroke-width:1;stroke-linecap:butt;stroke-linejoin:miter;stroke-miterlimit:10;stroke-dasharray:none;stroke-opacity:1"
             d="M 570.14001,320 H 540 v -15.13" /><path
             id="path54"
             style="fill:#000000;fill-opacity:1;fill-rule:nonzero;stroke:none"
             d="m 540,301.12 2.5,5 -2.5,-1.25 -2.5,1.25 z" /><path
             id="path56"
             style="fill:none;stroke:#000000;stroke-width:1;stroke-linecap:butt;stroke-linejoin:miter;stroke-miterlimit:10;stroke-dasharray:none;stroke-opacity:1"
             d="m 540,301.12 2.5,5 -2.5,-1.25 -2.5,1.25 z" /><path
             id="path58"
             style="fill:#ffe6cc;fill-opacity:1;fill-rule:nonzero;stroke:none"
             d="m 482.5,320 h 115 c 0.49249,0 0.98016,0.048 1.46313,0.1441 0.48298,0.0961 0.95197,0.23835 1.40693,0.42679 0.45501,0.18845 0.8872,0.41947 1.29663,0.69306 0.40948,0.27359 0.78833,0.5845 1.13653,0.93274 0.34821,0.3482 0.65906,0.72705 0.93262,1.13653 0.27362,0.40946 0.5047,0.84165 0.69312,1.29663 0.18847,0.45499 0.33074,0.92395 0.42681,1.40695 0.0961,0.48301 0.14417,0.97074 0.14423,1.4632 v 35 c -6e-5,0.49243 -0.0481,0.98013 -0.14423,1.46313 -0.0961,0.48301 -0.23834,0.952 -0.42681,1.40696 -0.18842,0.45495 -0.4195,0.88717 -0.69312,1.29666 -0.27356,0.40945 -0.58441,0.7883 -0.93262,1.13653 -0.3482,0.34821 -0.72705,0.65909 -1.13653,0.93268 -0.40943,0.27359 -0.84162,0.50464 -1.29663,0.69309 -0.45496,0.18844 -0.92395,0.33072 -1.40693,0.42682 -0.48297,0.0961 -0.97064,0.1441 -1.46313,0.14413 h -115 c -0.49246,-3e-5 -0.98022,-0.0481 -1.46323,-0.14413 -0.483,-0.0961 -0.95196,-0.23838 -1.40695,-0.42682 -0.45498,-0.18845 -0.88721,-0.41947 -1.29666,-0.69306 -0.40945,-0.27359 -0.78827,-0.5845 -1.13647,-0.93271 -0.34824,-0.34823 -0.65918,-0.72708 -0.93277,-1.13653 -0.27359,-0.40949 -0.50461,-0.84171 -0.69306,-1.29666 -0.18844,-0.45496 -0.33072,-0.92395 -0.42676,-1.40696 -0.0961,-0.483 -0.14413,-0.9707 -0.1441,-1.46313 v -35 c -3e-5,-0.49246 0.048,-0.98019 0.1441,-1.4632 0.096,-0.483 0.23832,-0.95196 0.42676,-1.40695 0.18845,-0.45498 0.41947,-0.8872 0.69306,-1.29666 0.27359,-0.40945 0.58453,-0.7883 0.93277,-1.1365 0.3482,-0.34824 0.72705,-0.65915 1.1365,-0.93274 0.40946,-0.27359 0.84165,-0.50461 1.29663,-0.69306 0.45499,-0.18844 0.92395,-0.33072 1.40695,-0.42679 C 481.51978,320.04803 482.00754,320 482.5,320 Z" /><path
             id="path60"
             style="fill:none;stroke:#d79b00;stroke-width:1;stroke-linecap:butt;stroke-linejoin:miter;stroke-miterlimit:10;stroke-dasharray:none;stroke-opacity:1"
             d="m 482.5,320 h 115 c 0.49249,0 0.98016,0.048 1.46313,0.1441 0.48298,0.0961 0.95197,0.23835 1.40693,0.42679 0.45501,0.18845 0.8872,0.41947 1.29663,0.69306 0.40948,0.27359 0.78833,0.5845 1.13653,0.93274 0.34821,0.3482 0.65906,0.72705 0.93262,1.13653 0.27362,0.40946 0.5047,0.84165 0.69312,1.29663 0.18847,0.45499 0.33074,0.92395 0.42681,1.40695 0.0961,0.48301 0.14417,0.97074 0.14423,1.4632 v 35 c -6e-5,0.49243 -0.0481,0.98013 -0.14423,1.46313 -0.0961,0.48301 -0.23834,0.952 -0.42681,1.40696 -0.18842,0.45495 -0.4195,0.88717 -0.69312,1.29666 -0.27356,0.40945 -0.58441,0.7883 -0.93262,1.13653 -0.3482,0.34821 -0.72705,0.65909 -1.13653,0.93268 -0.40943,0.27359 -0.84162,0.50464 -1.29663,0.69309 -0.45496,0.18844 -0.92395,0.33072 -1.40693,0.42682 -0.48297,0.0961 -0.97064,0.1441 -1.46313,0.14413 h -115 c -0.49246,-3e-5 -0.98022,-0.0481 -1.46323,-0.14413 -0.483,-0.0961 -0.95196,-0.23838 -1.40695,-0.42682 -0.45498,-0.18845 -0.88721,-0.41947 -1.29666,-0.69306 -0.40945,-0.27359 -0.78827,-0.5845 -1.13647,-0.93271 -0.34824,-0.34823 -0.65918,-0.72708 -0.93277,-1.13653 -0.27359,-0.40949 -0.50461,-0.84171 -0.69306,-1.29666 -0.18844,-0.45496 -0.33072,-0.92395 -0.42676,-1.40696 -0.0961,-0.483 -0.14413,-0.9707 -0.1441,-1.46313 v -35 c -3e-5,-0.49246 0.048,-0.98019 0.1441,-1.4632 0.096,-0.483 0.23832,-0.95196 0.42676,-1.40695 0.18845,-0.45498 0.41947,-0.8872 0.69306,-1.29666 0.27359,-0.40945 0.58453,-0.7883 0.93277,-1.1365 0.3482,-0.34824 0.72705,-0.65915 1.1365,-0.93274 0.40946,-0.27359 0.84165,-0.50461 1.29663,-0.69306 0.45499,-0.18844 0.92395,-0.33072 1.40695,-0.42679 C 481.51978,320.04803 482.00754,320 482.5,320 Z" /></g><g
           transform="matrix(3.1022513,0,0,3.1022513,-767.74396,-811.21594)"
           id="g62"><text
             id="text66"
             style="font-variant:normal;font-weight:normal;font-size:12px;font-family:LiberationMono;-inkscape-font-specification:LiberationMono;writing-mode:lr-tb;fill:#000000;fill-opacity:1;fill-rule:nonzero;stroke:none"
             transform="translate(489.57813,348)"><tspan
               id="tspan64"
               y="0"
               x="0 7.2011719 14.402344 21.603516 28.804688 36.005859 43.207031 50.408203 57.609375 64.810547 72.011719 79.212891 86.414062 93.615234">Global decoder</tspan></text>
</g><g
           transform="matrix(3.1022513,0,0,3.1022513,-766.19281,-809.66486)"
           id="g68"><path
             id="path70"
             style="fill:#ffffff;fill-opacity:1;fill-rule:nonzero;stroke:none"
             d="m 490,280 h 10 v 20 h -10 z" /><path
             id="path72"
             style="fill:none;stroke:#000000;stroke-width:1;stroke-linecap:butt;stroke-linejoin:miter;stroke-miterlimit:10;stroke-dasharray:none;stroke-opacity:1"
             d="m 490,280 h 10 v 20 h -10 z" /><path
             id="path74"
             style="fill:#ffffff;fill-opacity:1;fill-rule:nonzero;stroke:none"
             d="m 510,280 h 10 v 20 h -10 z" /><path
             id="path76"
             style="fill:none;stroke:#000000;stroke-width:1;stroke-linecap:butt;stroke-linejoin:miter;stroke-miterlimit:10;stroke-dasharray:none;stroke-opacity:1"
             d="m 510,280 h 10 v 20 h -10 z" /><path
             id="path78"
             style="fill:none;stroke:#000000;stroke-width:1;stroke-linecap:butt;stroke-linejoin:miter;stroke-miterlimit:10;stroke-dasharray:none;stroke-opacity:1"
             d="M 540.15997,278.14999 540.20001,270 H 620 v 137 h 40 l 13.63,-0.34" /><path
             id="path80"
             style="fill:#000000;fill-opacity:1;fill-rule:nonzero;stroke:none"
             d="m 678.88,406.53 -6.91003,3.67001 1.66003,-3.54001 -1.83001,-3.45999 z" /><path
             id="path82"
             style="fill:none;stroke:#000000;stroke-width:1;stroke-linecap:butt;stroke-linejoin:miter;stroke-miterlimit:10;stroke-dasharray:none;stroke-opacity:1"
             d="m 678.88,406.53 -6.91003,3.67001 1.66003,-3.54001 -1.83001,-3.45999 z" /><path
             id="path84"
             style="fill:#ffffff;fill-opacity:1;fill-rule:nonzero;stroke:none"
             d="m 580,280 h 10 v 20 h -10 z" /><path
             id="path86"
             style="fill:none;stroke:#000000;stroke-width:1;stroke-linecap:butt;stroke-linejoin:miter;stroke-miterlimit:10;stroke-dasharray:none;stroke-opacity:1"
             d="m 580,280 h 10 v 20 h -10 z" /></g><g
           transform="matrix(3.1022513,0,0,3.1022513,-767.74396,-811.21594)"
           id="g88"><text
             id="text92"
             style="font-variant:normal;font-weight:normal;font-size:12px;font-family:LiberationSans;-inkscape-font-specification:LiberationSans;writing-mode:lr-tb;fill:#000000;fill-opacity:1;fill-rule:nonzero;stroke:none"
             transform="translate(534.98438,289)"><tspan
               id="tspan90"
               y="0"
               x="0 3.3339844 6.6679688">...</tspan></text>
</g><g
           transform="matrix(3.1022513,0,0,3.1022513,-766.19281,-809.66486)"
           id="g94"><path
             id="path96"
             style="fill:none;stroke:#000000;stroke-width:1;stroke-linecap:butt;stroke-linejoin:miter;stroke-miterlimit:10;stroke-dasharray:none;stroke-opacity:1"
             d="m 745,320 -0.10999,-11.76001" /><path
             id="path98"
             style="fill:#000000;fill-opacity:1;fill-rule:nonzero;stroke:none"
             d="m 744.85999,304.48999 2.54003,4.98001 -2.51001,-1.23001 -2.48999,1.27002 z" /><path
             id="path100"
             style="fill:none;stroke:#000000;stroke-width:1;stroke-linecap:butt;stroke-linejoin:miter;stroke-miterlimit:10;stroke-dasharray:none;stroke-opacity:1"
             d="m 744.85999,304.48999 2.54003,4.98001 -2.51001,-1.23001 -2.48999,1.27002 z" /><path
             id="path102"
             style="fill:#f8cecc;fill-opacity:1;fill-rule:nonzero;stroke:none"
             d="m 677.5,320 h 135 c 0.49237,0 0.9801,0.048 1.46307,0.1441 0.48297,0.0961 0.95197,0.23835 1.40693,0.42679 0.45501,0.18845 0.8872,0.41947 1.29669,0.69306 0.40948,0.27359 0.78833,0.5845 1.13659,0.93274 0.34821,0.3482 0.65912,0.72705 0.93274,1.13653 0.27356,0.40946 0.50458,0.84165 0.69306,1.29663 0.18847,0.45499 0.33075,0.92395 0.42682,1.40695 0.096,0.48301 0.14404,0.97074 0.1441,1.4632 v 35 c -6e-5,0.49243 -0.0481,0.98013 -0.1441,1.46313 -0.0961,0.48301 -0.23835,0.952 -0.42682,1.40696 -0.18848,0.45495 -0.4195,0.88717 -0.69306,1.29666 -0.27362,0.40945 -0.58453,0.7883 -0.93274,1.13653 -0.34826,0.34821 -0.72711,0.65909 -1.13659,0.93268 -0.40949,0.27359 -0.84168,0.50464 -1.29669,0.69309 -0.45496,0.18844 -0.92396,0.33072 -1.40693,0.42682 -0.48297,0.0961 -0.9707,0.1441 -1.46307,0.14413 h -135 c -0.49249,-3e-5 -0.98022,-0.0481 -1.4632,-0.14413 -0.48303,-0.0961 -0.95202,-0.23838 -1.40704,-0.42682 -0.45502,-0.18845 -0.88721,-0.41947 -1.29669,-0.69306 -0.40949,-0.27359 -0.78827,-0.5845 -1.13648,-0.93271 -0.3482,-0.34823 -0.65911,-0.72708 -0.93274,-1.13653 -0.27362,-0.40949 -0.50463,-0.84171 -0.69305,-1.29666 -0.18841,-0.45496 -0.33069,-0.92395 -0.42676,-1.40696 -0.0961,-0.483 -0.1441,-0.9707 -0.14404,-1.46313 v -35 c -6e-5,-0.49246 0.048,-0.98019 0.14404,-1.4632 0.0961,-0.483 0.23835,-0.95196 0.42676,-1.40695 0.18842,-0.45498 0.41943,-0.8872 0.69305,-1.29666 0.27363,-0.40945 0.58454,-0.7883 0.93274,-1.1365 0.34821,-0.34824 0.72699,-0.65915 1.13648,-0.93274 0.40948,-0.27359 0.84167,-0.50461 1.29669,-0.69306 0.45502,-0.18844 0.92401,-0.33072 1.40704,-0.42679 C 676.51978,320.04803 677.00751,320 677.5,320 Z" /><path
             id="path104"
             style="fill:none;stroke:#b85450;stroke-width:1;stroke-linecap:butt;stroke-linejoin:miter;stroke-miterlimit:10;stroke-dasharray:none;stroke-opacity:1"
             d="m 677.5,320 h 135 c 0.49237,0 0.9801,0.048 1.46307,0.1441 0.48297,0.0961 0.95197,0.23835 1.40693,0.42679 0.45501,0.18845 0.8872,0.41947 1.29669,0.69306 0.40948,0.27359 0.78833,0.5845 1.13659,0.93274 0.34821,0.3482 0.65912,0.72705 0.93274,1.13653 0.27356,0.40946 0.50458,0.84165 0.69306,1.29663 0.18847,0.45499 0.33075,0.92395 0.42682,1.40695 0.096,0.48301 0.14404,0.97074 0.1441,1.4632 v 35 c -6e-5,0.49243 -0.0481,0.98013 -0.1441,1.46313 -0.0961,0.48301 -0.23835,0.952 -0.42682,1.40696 -0.18848,0.45495 -0.4195,0.88717 -0.69306,1.29666 -0.27362,0.40945 -0.58453,0.7883 -0.93274,1.13653 -0.34826,0.34821 -0.72711,0.65909 -1.13659,0.93268 -0.40949,0.27359 -0.84168,0.50464 -1.29669,0.69309 -0.45496,0.18844 -0.92396,0.33072 -1.40693,0.42682 -0.48297,0.0961 -0.9707,0.1441 -1.46307,0.14413 h -135 c -0.49249,-3e-5 -0.98022,-0.0481 -1.4632,-0.14413 -0.48303,-0.0961 -0.95202,-0.23838 -1.40704,-0.42682 -0.45502,-0.18845 -0.88721,-0.41947 -1.29669,-0.69306 -0.40949,-0.27359 -0.78827,-0.5845 -1.13648,-0.93271 -0.3482,-0.34823 -0.65911,-0.72708 -0.93274,-1.13653 -0.27362,-0.40949 -0.50463,-0.84171 -0.69305,-1.29666 -0.18841,-0.45496 -0.33069,-0.92395 -0.42676,-1.40696 -0.0961,-0.483 -0.1441,-0.9707 -0.14404,-1.46313 v -35 c -6e-5,-0.49246 0.048,-0.98019 0.14404,-1.4632 0.0961,-0.483 0.23835,-0.95196 0.42676,-1.40695 0.18842,-0.45498 0.41943,-0.8872 0.69305,-1.29666 0.27363,-0.40945 0.58454,-0.7883 0.93274,-1.1365 0.34821,-0.34824 0.72699,-0.65915 1.13648,-0.93274 0.40948,-0.27359 0.84167,-0.50461 1.29669,-0.69306 0.45502,-0.18844 0.92401,-0.33072 1.40704,-0.42679 C 676.51978,320.04803 677.00751,320 677.5,320 Z" /></g><g
           transform="matrix(3.1022513,0,0,3.1022513,-767.74396,-811.21594)"
           id="g106"><text
             id="text110"
             style="font-variant:normal;font-weight:normal;font-size:12px;font-family:LiberationMono;-inkscape-font-specification:LiberationMono;writing-mode:lr-tb;fill:#000000;fill-opacity:1;fill-rule:nonzero;stroke:none"
             transform="translate(698.1875,348)"><tspan
               id="tspan108"
               y="0"
               x="0 7.2011719 14.402344 21.603516 28.804688 36.005859 43.207031 50.408203 57.609375 64.810547 72.011719 79.212891 86.414062">Local decoder</tspan></text>
</g><g
           transform="matrix(3.1022513,0,0,3.1022513,-766.19281,-809.66486)"
           id="g112"><path
             id="path114"
             style="fill:#fff2cc;fill-opacity:1;fill-rule:nonzero;stroke:none"
             d="m 314,395 h 10 v 30 h -10 z" /><path
             id="path116"
             style="fill:none;stroke:#d6b656;stroke-width:1;stroke-linecap:butt;stroke-linejoin:miter;stroke-miterlimit:10;stroke-dasharray:none;stroke-opacity:1"
             d="m 314,395 h 10 v 30 h -10 z" /><path
             id="path118"
             style="fill:#fff2cc;fill-opacity:1;fill-rule:nonzero;stroke:none"
             d="m 364,395 h 10 v 30 h -10 z" /><path
             id="path120"
             style="fill:none;stroke:#d6b656;stroke-width:1;stroke-linecap:butt;stroke-linejoin:miter;stroke-miterlimit:10;stroke-dasharray:none;stroke-opacity:1"
             d="m 364,395 h 10 v 30 h -10 z" /></g><g
           transform="matrix(3.1022513,0,0,3.1022513,-767.74396,-811.21594)"
           id="g122"><text
             id="text126"
             style="font-variant:normal;font-weight:normal;font-size:12px;font-family:LiberationSans;-inkscape-font-specification:LiberationSans;writing-mode:lr-tb;fill:#000000;fill-opacity:1;fill-rule:nonzero;stroke:none"
             transform="translate(337.98438,414)"><tspan
               id="tspan124"
               y="0"
               x="0 3.3339844 6.6679688">...</tspan></text>
</g><g
           transform="matrix(3.1022513,0,0,3.1022513,-766.19281,-809.66486)"
           id="g128"><path
             id="path130"
             style="fill:#d5e8d4;fill-opacity:1;fill-rule:nonzero;stroke:none"
             d="m 270,395 h 10 v 30 h -10 z" /><path
             id="path132"
             style="fill:none;stroke:#82b366;stroke-width:1;stroke-linecap:butt;stroke-linejoin:miter;stroke-miterlimit:10;stroke-dasharray:none;stroke-opacity:1"
             d="m 270,395 h 10 v 30 h -10 z" /><path
             id="path134"
             style="fill:#d5e8d4;fill-opacity:1;fill-rule:nonzero;stroke:none"
             d="m 290,395 h 10 v 30 h -10 z" /><path
             id="path136"
             style="fill:none;stroke:#82b366;stroke-width:1;stroke-linecap:butt;stroke-linejoin:miter;stroke-miterlimit:10;stroke-dasharray:none;stroke-opacity:1"
             d="m 290,395 h 10 v 30 h -10 z" /><path
             id="path138"
             style="fill:none;stroke:#666666;stroke-width:1;stroke-linecap:butt;stroke-linejoin:miter;stroke-miterlimit:10;stroke-dasharray:none;stroke-opacity:1"
             d="m 314,435 h 60" /></g><g
           transform="matrix(3.1022513,0,0,3.1022513,-767.74396,-811.21594)"
           id="g140"><text
             id="text144"
             style="font-variant:normal;font-weight:normal;font-size:8px;font-family:LiberationMono;-inkscape-font-specification:LiberationMono;writing-mode:lr-tb;fill:#000000;fill-opacity:1;fill-rule:nonzero;stroke:none"
             transform="translate(334.39063,443)"><tspan
               id="tspan142"
               y="0"
               x="0 4.8007812 9.6015625 14.402344">text</tspan></text>
<text
             id="text148"
             style="font-variant:normal;font-weight:normal;font-size:8px;font-family:LiberationMono;-inkscape-font-specification:LiberationMono;writing-mode:lr-tb;fill:#000000;fill-opacity:1;fill-rule:nonzero;stroke:none"
             transform="translate(319.98438,453)"><tspan
               id="tspan146"
               y="0"
               x="0 4.8007812 9.6015625 14.402344 19.203125 24.003906 28.804688 33.605469 38.40625 43.207031">embeddings</tspan></text>
</g><g
           transform="matrix(3.1022513,0,0,3.1022513,-766.19281,-809.66486)"
           id="g150"><path
             id="path152"
             style="fill:none;stroke:#82b366;stroke-width:1;stroke-linecap:butt;stroke-linejoin:miter;stroke-miterlimit:10;stroke-dasharray:none;stroke-opacity:1"
             d="m 264,435 h 40" /></g><g
           transform="matrix(3.1022513,0,0,3.1022513,-767.74396,-811.21594)"
           id="g154"><text
             id="text158"
             style="font-variant:normal;font-weight:normal;font-size:8px;font-family:LiberationMono;-inkscape-font-specification:LiberationMono;writing-mode:lr-tb;fill:#000000;fill-opacity:1;fill-rule:nonzero;stroke:none"
             transform="translate(268.6875,443)"><tspan
               id="tspan156"
               y="0"
               x="0 4.8007812 9.6015625 14.402344 19.203125 24.003906 28.804688">speaker</tspan></text>
<text
             id="text162"
             style="font-variant:normal;font-weight:normal;font-size:8px;font-family:LiberationMono;-inkscape-font-specification:LiberationMono;writing-mode:lr-tb;fill:#000000;fill-opacity:1;fill-rule:nonzero;stroke:none"
             transform="translate(261.48438,453)"><tspan
               id="tspan160"
               y="0"
               x="0 4.8007812 9.6015625 14.402344 19.203125 24.003906 28.804688 33.605469 38.40625 43.207031">embeddings</tspan></text>
</g><g
           transform="matrix(3.1022513,0,0,3.1022513,-766.19281,-809.66486)"
           id="g164"><path
             id="path166"
             style="fill:none;stroke:#000000;stroke-width:1;stroke-linecap:butt;stroke-linejoin:miter;stroke-miterlimit:10;stroke-dasharray:none;stroke-opacity:1"
             d="M 322,390 V 374.87" /><path
             id="path168"
             style="fill:#000000;fill-opacity:1;fill-rule:nonzero;stroke:none"
             d="m 322,371.12 2.5,5 -2.5,-1.25 -2.5,1.25 z" /><path
             id="path170"
             style="fill:none;stroke:#000000;stroke-width:1;stroke-linecap:butt;stroke-linejoin:miter;stroke-miterlimit:10;stroke-dasharray:none;stroke-opacity:1"
             d="m 322,371.12 2.5,5 -2.5,-1.25 -2.5,1.25 z" /><path
             id="path172"
             style="fill:#ffffff;fill-opacity:1;fill-rule:nonzero;stroke:none"
             d="m 680,393 h 10 v 27 h -10 z" /><path
             id="path174"
             style="fill:none;stroke:#000000;stroke-width:1;stroke-linecap:butt;stroke-linejoin:miter;stroke-miterlimit:10;stroke-dasharray:none;stroke-opacity:1"
             d="m 680,393 h 10 v 27 h -10 z" /><path
             id="path176"
             style="fill:#f5f5f5;fill-opacity:1;fill-rule:nonzero;stroke:none"
             d="m 700,393 h 10 v 27 h -10 z" /><path
             id="path178"
             style="fill:none;stroke:#666666;stroke-width:1;stroke-linecap:butt;stroke-linejoin:miter;stroke-miterlimit:10;stroke-dasharray:none;stroke-opacity:1"
             d="m 700,393 h 10 v 27 h -10 z" /><path
             id="path180"
             style="fill:#b3b3b3;fill-opacity:1;fill-rule:nonzero;stroke:none"
             d="m 720,393 h 10 v 27 h -10 z" /><path
             id="path182"
             style="fill:none;stroke:#666666;stroke-width:1;stroke-linecap:butt;stroke-linejoin:miter;stroke-miterlimit:10;stroke-dasharray:none;stroke-opacity:1"
             d="m 720,393 h 10 v 27 h -10 z" /><path
             id="path184"
             style="fill:#b3b3b3;fill-opacity:1;fill-rule:nonzero;stroke:none"
             d="m 740,393 h 10 v 27 h -10 z" /><path
             id="path186"
             style="fill:none;stroke:#666666;stroke-width:1;stroke-linecap:butt;stroke-linejoin:miter;stroke-miterlimit:10;stroke-dasharray:none;stroke-opacity:1"
             d="m 740,393 h 10 v 27 h -10 z" /><path
             id="path188"
             style="fill:#666666;fill-opacity:1;fill-rule:nonzero;stroke:none"
             d="m 760,393 h 10 v 27 h -10 z" /><path
             id="path190"
             style="fill:none;stroke:#666666;stroke-width:1;stroke-linecap:butt;stroke-linejoin:miter;stroke-miterlimit:10;stroke-dasharray:none;stroke-opacity:1"
             d="m 760,393 h 10 v 27 h -10 z" /><path
             id="path192"
             style="fill:#666666;fill-opacity:1;fill-rule:nonzero;stroke:none"
             d="m 780,393 h 10 v 27 h -10 z" /><path
             id="path194"
             style="fill:none;stroke:#666666;stroke-width:1;stroke-linecap:butt;stroke-linejoin:miter;stroke-miterlimit:10;stroke-dasharray:none;stroke-opacity:1"
             d="m 780,393 h 10 v 27 h -10 z" /><path
             id="path196"
             style="fill:#666666;fill-opacity:1;fill-rule:nonzero;stroke:none"
             d="m 800,393 h 10 v 27 h -10 z" /><path
             id="path198"
             style="fill:none;stroke:#666666;stroke-width:1;stroke-linecap:butt;stroke-linejoin:miter;stroke-miterlimit:10;stroke-dasharray:none;stroke-opacity:1"
             d="m 800,393 h 10 v 27 h -10 z" /><path
             id="path200"
             style="fill:#f5f5f5;fill-opacity:1;fill-rule:nonzero;stroke:none"
             d="m 680,270 h 10 v 30 h -10 z" /><path
             id="path202"
             style="fill:none;stroke:#666666;stroke-width:1;stroke-linecap:butt;stroke-linejoin:miter;stroke-miterlimit:10;stroke-dasharray:none;stroke-opacity:1"
             d="m 680,270 h 10 v 30 h -10 z" /><path
             id="path204"
             style="fill:#b3b3b3;fill-opacity:1;fill-rule:nonzero;stroke:none"
             d="m 700,270 h 10 v 30 h -10 z" /><path
             id="path206"
             style="fill:none;stroke:#666666;stroke-width:1;stroke-linecap:butt;stroke-linejoin:miter;stroke-miterlimit:10;stroke-dasharray:none;stroke-opacity:1"
             d="m 700,270 h 10 v 30 h -10 z" /><path
             id="path208"
             style="fill:#b3b3b3;fill-opacity:1;fill-rule:nonzero;stroke:none"
             d="m 720,270 h 10 v 30 h -10 z" /><path
             id="path210"
             style="fill:none;stroke:#666666;stroke-width:1;stroke-linecap:butt;stroke-linejoin:miter;stroke-miterlimit:10;stroke-dasharray:none;stroke-opacity:1"
             d="m 720,270 h 10 v 30 h -10 z" /><path
             id="path212"
             style="fill:#666666;fill-opacity:1;fill-rule:nonzero;stroke:none"
             d="m 740,270 h 10 v 30 h -10 z" /><path
             id="path214"
             style="fill:none;stroke:#666666;stroke-width:1;stroke-linecap:butt;stroke-linejoin:miter;stroke-miterlimit:10;stroke-dasharray:none;stroke-opacity:1"
             d="m 740,270 h 10 v 30 h -10 z" /><path
             id="path216"
             style="fill:#666666;fill-opacity:1;fill-rule:nonzero;stroke:none"
             d="m 760,270 h 10 v 30 h -10 z" /><path
             id="path218"
             style="fill:none;stroke:#666666;stroke-width:1;stroke-linecap:butt;stroke-linejoin:miter;stroke-miterlimit:10;stroke-dasharray:none;stroke-opacity:1"
             d="m 760,270 h 10 v 30 h -10 z" /><path
             id="path220"
             style="fill:#666666;fill-opacity:1;fill-rule:nonzero;stroke:none"
             d="m 780,270 h 10 v 30 h -10 z" /><path
             id="path222"
             style="fill:none;stroke:#666666;stroke-width:1;stroke-linecap:butt;stroke-linejoin:miter;stroke-miterlimit:10;stroke-dasharray:none;stroke-opacity:1"
             d="m 780,270 h 10 v 30 h -10 z" /><path
             id="path224"
             style="fill:#666666;fill-opacity:1;fill-rule:nonzero;stroke:none"
             d="m 800,270 h 10 v 30 h -10 z" /><path
             id="path226"
             style="fill:none;stroke:#666666;stroke-width:1;stroke-linecap:butt;stroke-linejoin:miter;stroke-miterlimit:10;stroke-dasharray:none;stroke-opacity:1"
             d="m 800,270 h 10 v 30 h -10 z" /><path
             id="path228"
             style="fill:none;stroke:#000000;stroke-width:1;stroke-linecap:butt;stroke-linejoin:miter;stroke-miterlimit:10;stroke-dasharray:none;stroke-opacity:1"
             d="M 744.83002,390 V 374.87" /><path
             id="path230"
             style="fill:#000000;fill-opacity:1;fill-rule:nonzero;stroke:none"
             d="m 744.83002,371.12 2.5,5 -2.5,-1.25 -2.5,1.25 z" /><path
             id="path232"
             style="fill:none;stroke:#000000;stroke-width:1;stroke-linecap:butt;stroke-linejoin:miter;stroke-miterlimit:10;stroke-dasharray:none;stroke-opacity:1"
             d="m 744.83002,371.12 2.5,5 -2.5,-1.25 -2.5,1.25 z" /></g><g
           transform="matrix(0.0296487,0,0,-0.0296487,1400.7362,546.10443)"
           id="g234"><path
             id="path236"
             style="fill:#000000;fill-opacity:1;fill-rule:nonzero;stroke:none"
             d="m 228,637 c -22.66667,0 -34.66667,1.33331 -36,4 -0.66667,1.33331 -1,4 -1,8 0,16 3.66667,27 11,33 1.33333,0.66669 6.33333,1 15,1 36,-2 78.33334,-3 127,-3 94,0 148,1 162,3 h 12 c 4,-4 6,-7 6,-9 0,-2 -0.66669,-8 -2,-18 -3.33331,-10 -6.33331,-16.33331 -9,-19 h -38 c -46,-0.66669 -73,-3.66669 -81,-9 -4.66666,-2.66669 -9.33334,-12 -14,-28 C 375.33334,584 353,496 313,336 302.33334,292.66666 291,246.66667 279,198 267,149.33333 258,112.66667 252,88 l -9,-36 c 0,-2.666668 3,-4 9,-4 6,0 25.66666,-0.666668 59,-2 h 17 c 21.33334,0 38.33334,0.333332 51,1 12.66666,0.666668 29,3 49,7 20,4 36.66666,10 50,18 13.33334,8 28,19.333336 44,34 16,14.66666 30,33 42,55 10.66669,20 20.66669,42.33333 30,67 9.33331,24.66667 15,38.66666 17,42 3.33331,2 9,3 17,3 h 13 c 4,-6 6,-9.66666 6,-11 0,-1.33334 -6.66669,-21 -20,-59 C 613.66669,165 599,125 583,83 567,41 558.33331,16.333334 557,9 555.66669,5.6666665 554.33331,3.6666667 553,3 551.66669,2.3333333 546.33331,1.3333334 537,0 c -9.33331,-1.3333334 -23.66669,-1.6666667 -43,-1 -7.33334,0 -32.66666,0 -76,0 -43.33334,0 -84.66666,0.33333331 -124,1 H 116 C 60,0 32,3.333333 32,10 c 0,4.666667 0.666668,9.333332 2,14 3.333332,12.666668 6.666668,19.666668 10,21 2.666668,0.666668 7.666668,1 15,1 h 6 c 18,0 38,1 60,3 9.33333,2 15.66667,6 19,12 2,2.666668 26,95.33333 72,278 46,182.66669 69,279 69,289 0,4.66669 -19,7.66669 -57,9 z" /><path
             id="path238"
             style="fill:none;stroke:#000000;stroke-width:1;stroke-linecap:butt;stroke-linejoin:miter;stroke-miterlimit:10;stroke-dasharray:none;stroke-opacity:0.08889998"
             d="m 228,637 c -22.66667,0 -34.66667,1.33331 -36,4 -0.66667,1.33331 -1,4 -1,8 0,16 3.66667,27 11,33 1.33333,0.66669 6.33333,1 15,1 36,-2 78.33334,-3 127,-3 94,0 148,1 162,3 h 12 c 4,-4 6,-7 6,-9 0,-2 -0.66669,-8 -2,-18 -3.33331,-10 -6.33331,-16.33331 -9,-19 h -38 c -46,-0.66669 -73,-3.66669 -81,-9 -4.66666,-2.66669 -9.33334,-12 -14,-28 C 375.33334,584 353,496 313,336 302.33334,292.66666 291,246.66667 279,198 267,149.33333 258,112.66667 252,88 l -9,-36 c 0,-2.666668 3,-4 9,-4 6,0 25.66666,-0.666668 59,-2 h 17 c 21.33334,0 38.33334,0.333332 51,1 12.66666,0.666668 29,3 49,7 20,4 36.66666,10 50,18 13.33334,8 28,19.333336 44,34 16,14.66666 30,33 42,55 10.66669,20 20.66669,42.33333 30,67 9.33331,24.66667 15,38.66666 17,42 3.33331,2 9,3 17,3 h 13 c 4,-6 6,-9.66666 6,-11 0,-1.33334 -6.66669,-21 -20,-59 C 613.66669,165 599,125 583,83 567,41 558.33331,16.333334 557,9 555.66669,5.6666665 554.33331,3.6666667 553,3 551.66669,2.3333333 546.33331,1.3333334 537,0 c -9.33331,-1.3333334 -23.66669,-1.6666667 -43,-1 -7.33334,0 -32.66666,0 -76,0 -43.33334,0 -84.66666,0.33333331 -124,1 H 116 C 60,0 32,3.333333 32,10 c 0,4.666667 0.666668,9.333332 2,14 3.333332,12.666668 6.666668,19.666668 10,21 2.666668,0.666668 7.666668,1 15,1 h 6 c 18,0 38,1 60,3 9.33333,2 15.66667,6 19,12 2,2.666668 26,95.33333 72,278 46,182.66669 69,279 69,289 0,4.66669 -19,7.66669 -57,9 z" /></g><g
           transform="matrix(0.02475667,0,0,-0.02475667,1421.9054,552.1142)"
           id="g240"><path
             id="path242"
             style="fill:#000000;fill-opacity:1;fill-rule:nonzero;stroke:none"
             d="m 96,585 c 37.33334,54 88.33333,81 153,81 32,0 64,-8.66669 96,-26 32,-17.33331 58,-48 78,-92 24.66666,-55.33334 37,-131.33331 37,-228 C 460,216.66666 445.66666,137.66667 417,83 403.66666,55 385.33334,32.666668 362,16 338.66666,-0.66666794 318.33334,-11 301,-15 c -17.33334,-4 -34.33334,-6.333334 -51,-7 -17.33333,0 -34.66667,2 -52,6 -17.33333,4 -37.66667,14.666666 -61,32 C 113.66666,33.333336 95.333336,55.666664 82,83 53.333332,137.66667 39,216.66666 39,320 39,436 58,524.33331 96,585 Z m 225,12 c -20,21.33331 -43.66666,32 -71,32 -28,0 -52,-10.66669 -72,-32 -16.66667,-17.33331 -27.66667,-41.33331 -33,-72 -5.33333,-30.66666 -8,-94.66666 -8,-192 0,-105.33334 2.66667,-174.66666 8,-208 5.33333,-33.333336 17.33333,-59.666664 36,-79 18.66667,-20 41.66667,-30 69,-30 26.66666,0 49.33334,10 68,30 19.33334,20 31.33334,48 36,84 4.66666,36 7.33334,103.66666 8,203 0,96.66669 -2.66666,160.33334 -8,191 -5.33334,30.66669 -16.33334,55 -33,73 z" /><path
             id="path244"
             style="fill:none;stroke:#000000;stroke-width:1;stroke-linecap:butt;stroke-linejoin:miter;stroke-miterlimit:10;stroke-dasharray:none;stroke-opacity:0.07430001"
             d="m 96,585 c 37.33334,54 88.33333,81 153,81 32,0 64,-8.66669 96,-26 32,-17.33331 58,-48 78,-92 24.66666,-55.33334 37,-131.33331 37,-228 C 460,216.66666 445.66666,137.66667 417,83 403.66666,55 385.33334,32.666668 362,16 338.66666,-0.66666794 318.33334,-11 301,-15 c -17.33334,-4 -34.33334,-6.333334 -51,-7 -17.33333,0 -34.66667,2 -52,6 -17.33333,4 -37.66667,14.666666 -61,32 C 113.66666,33.333336 95.333336,55.666664 82,83 53.333332,137.66667 39,216.66666 39,320 39,436 58,524.33331 96,585 Z m 225,12 c -20,21.33331 -43.66666,32 -71,32 -28,0 -52,-10.66669 -72,-32 -16.66667,-17.33331 -27.66667,-41.33331 -33,-72 -5.33333,-30.66666 -8,-94.66666 -8,-192 0,-105.33334 2.66667,-174.66666 8,-208 5.33333,-33.333336 17.33333,-59.666664 36,-79 18.66667,-20 41.66667,-30 69,-30 26.66666,0 49.33334,10 68,30 19.33334,20 31.33334,48 36,84 4.66666,36 7.33334,103.66666 8,203 0,96.66669 -2.66666,160.33334 -8,191 -5.33334,30.66669 -16.33334,55 -33,73 z" /></g><g
           transform="matrix(0.02965957,0,0,-0.02965957,1493.7972,546.11322)"
           id="g246"><path
             id="path248"
             style="fill:#000000;fill-opacity:1;fill-rule:nonzero;stroke:none"
             d="m 228,637 c -22.66667,0 -34.66667,1.33331 -36,4 -0.66667,1.33331 -1,4 -1,8 0,16 3.66667,27 11,33 1.33333,0.66669 6.33333,1 15,1 36,-2 78.33334,-3 127,-3 94,0 148,1 162,3 h 12 c 4,-4 6,-7 6,-9 0,-2 -0.66669,-8 -2,-18 -3.33331,-10 -6.33331,-16.33331 -9,-19 h -38 c -46,-0.66669 -73,-3.66669 -81,-9 -4.66666,-2.66669 -9.33334,-12 -14,-28 C 375.33334,584 353,496 313,336 302.33334,292.66666 291,246.66667 279,198 267,149.33333 258,112.66667 252,88 l -9,-36 c 0,-2.666668 3,-4 9,-4 6,0 25.66666,-0.666668 59,-2 h 17 c 21.33334,0 38.33334,0.333332 51,1 12.66666,0.666668 29,3 49,7 20,4 36.66666,10 50,18 13.33334,8 28,19.333336 44,34 16,14.66666 30,33 42,55 10.66669,20 20.66669,42.33333 30,67 9.33331,24.66667 15,38.66666 17,42 3.33331,2 9,3 17,3 h 13 c 4,-6 6,-9.66666 6,-11 0,-1.33334 -6.66669,-21 -20,-59 C 613.66669,165 599,125 583,83 567,41 558.33331,16.333334 557,9 555.66669,5.6666665 554.33331,3.6666667 553,3 551.66669,2.3333333 546.33331,1.3333334 537,0 c -9.33331,-1.3333334 -23.66669,-1.6666667 -43,-1 -7.33334,0 -32.66666,0 -76,0 -43.33334,0 -84.66666,0.33333331 -124,1 H 116 C 60,0 32,3.333333 32,10 c 0,4.666667 0.666668,9.333332 2,14 3.333332,12.666668 6.666668,19.666668 10,21 2.666668,0.666668 7.666668,1 15,1 h 6 c 18,0 38,1 60,3 9.33333,2 15.66667,6 19,12 2,2.666668 26,95.33333 72,278 46,182.66669 69,279 69,289 0,4.66669 -19,7.66669 -57,9 z" /><path
             id="path250"
             style="fill:none;stroke:#000000;stroke-width:1;stroke-linecap:butt;stroke-linejoin:miter;stroke-miterlimit:10;stroke-dasharray:none;stroke-opacity:0.08900003"
             d="m 228,637 c -22.66667,0 -34.66667,1.33331 -36,4 -0.66667,1.33331 -1,4 -1,8 0,16 3.66667,27 11,33 1.33333,0.66669 6.33333,1 15,1 36,-2 78.33334,-3 127,-3 94,0 148,1 162,3 h 12 c 4,-4 6,-7 6,-9 0,-2 -0.66669,-8 -2,-18 -3.33331,-10 -6.33331,-16.33331 -9,-19 h -38 c -46,-0.66669 -73,-3.66669 -81,-9 -4.66666,-2.66669 -9.33334,-12 -14,-28 C 375.33334,584 353,496 313,336 302.33334,292.66666 291,246.66667 279,198 267,149.33333 258,112.66667 252,88 l -9,-36 c 0,-2.666668 3,-4 9,-4 6,0 25.66666,-0.666668 59,-2 h 17 c 21.33334,0 38.33334,0.333332 51,1 12.66666,0.666668 29,3 49,7 20,4 36.66666,10 50,18 13.33334,8 28,19.333336 44,34 16,14.66666 30,33 42,55 10.66669,20 20.66669,42.33333 30,67 9.33331,24.66667 15,38.66666 17,42 3.33331,2 9,3 17,3 h 13 c 4,-6 6,-9.66666 6,-11 0,-1.33334 -6.66669,-21 -20,-59 C 613.66669,165 599,125 583,83 567,41 558.33331,16.333334 557,9 555.66669,5.6666665 554.33331,3.6666667 553,3 551.66669,2.3333333 546.33331,1.3333334 537,0 c -9.33331,-1.3333334 -23.66669,-1.6666667 -43,-1 -7.33334,0 -32.66666,0 -76,0 -43.33334,0 -84.66666,0.33333331 -124,1 H 116 C 60,0 32,3.333333 32,10 c 0,4.666667 0.666668,9.333332 2,14 3.333332,12.666668 6.666668,19.666668 10,21 2.666668,0.666668 7.666668,1 15,1 h 6 c 18,0 38,1 60,3 9.33333,2 15.66667,6 19,12 2,2.666668 26,95.33333 72,278 46,182.66669 69,279 69,289 0,4.66669 -19,7.66669 -57,9 z" /></g><g
           transform="matrix(0.02476574,0,0,-0.02476574,1514.9741,552.12518)"
           id="g252"><path
             id="path254"
             style="fill:#000000;fill-opacity:1;fill-rule:nonzero;stroke:none"
             d="m 213,578 -13,-5 c -9.33333,-3.33331 -22.66667,-6.66669 -40,-10 -17.33333,-3.33331 -36.66666,-5.66669 -58,-7 H 83 v 46 h 19 c 31.33333,1.33331 60.33333,6.33331 87,15 26.66667,8.66669 45.33333,16.66669 56,24 10.66667,7.33331 20,14.66669 28,22 1.33334,2 5.33334,3 12,3 6,0 11.66666,-2 17,-6 V 361 l 1,-300 c 4.66666,-4.666668 8.66666,-7.666668 12,-9 3.33334,-1.333332 11.33334,-2.666668 24,-4 12.66666,-1.333332 33.33334,-2 62,-2 h 26 V 0 H 416 C 402,2 349,3 257,3 166.33333,3 114,2 100,0 H 88 v 46 h 26 c 14.66667,0 27.33333,0 38,0 10.66667,0 19,0.333332 25,1 6,0.666668 11.33333,1.666668 16,3 4.66667,1.333332 7.33333,2 8,2 0.66667,0 2.66667,1.666668 6,5 3.33333,3.333332 5.33333,4.666668 6,4 z" /><path
             id="path256"
             style="fill:none;stroke:#000000;stroke-width:1;stroke-linecap:butt;stroke-linejoin:miter;stroke-miterlimit:10;stroke-dasharray:none;stroke-opacity:0.07430001"
             d="m 213,578 -13,-5 c -9.33333,-3.33331 -22.66667,-6.66669 -40,-10 -17.33333,-3.33331 -36.66666,-5.66669 -58,-7 H 83 v 46 h 19 c 31.33333,1.33331 60.33333,6.33331 87,15 26.66667,8.66669 45.33333,16.66669 56,24 10.66667,7.33331 20,14.66669 28,22 1.33334,2 5.33334,3 12,3 6,0 11.66666,-2 17,-6 V 361 l 1,-300 c 4.66666,-4.666668 8.66666,-7.666668 12,-9 3.33334,-1.333332 11.33334,-2.666668 24,-4 12.66666,-1.333332 33.33334,-2 62,-2 h 26 V 0 H 416 C 402,2 349,3 257,3 166.33333,3 114,2 100,0 H 88 v 46 h 26 c 14.66667,0 27.33333,0 38,0 10.66667,0 19,0.333332 25,1 6,0.666668 11.33333,1.666668 16,3 4.66667,1.333332 7.33333,2 8,2 0.66667,0 2.66667,1.666668 6,5 3.33333,3.333332 5.33333,4.666668 6,4 z" /></g><g
           transform="matrix(0.02965957,0,0,-0.02965957,1648.9099,546.11322)"
           id="g258"><path
             id="path260"
             style="fill:#000000;fill-opacity:1;fill-rule:nonzero;stroke:none"
             d="m 228,637 c -22.66667,0 -34.66667,1.33331 -36,4 -0.66667,1.33331 -1,4 -1,8 0,16 3.66667,27 11,33 1.33333,0.66669 6.33333,1 15,1 36,-2 78.33334,-3 127,-3 94,0 148,1 162,3 h 12 c 4,-4 6,-7 6,-9 0,-2 -0.66669,-8 -2,-18 -3.33331,-10 -6.33331,-16.33331 -9,-19 h -38 c -46,-0.66669 -73,-3.66669 -81,-9 -4.66666,-2.66669 -9.33334,-12 -14,-28 C 375.33334,584 353,496 313,336 302.33334,292.66666 291,246.66667 279,198 267,149.33333 258,112.66667 252,88 l -9,-36 c 0,-2.666668 3,-4 9,-4 6,0 25.66666,-0.666668 59,-2 h 17 c 21.33334,0 38.33334,0.333332 51,1 12.66666,0.666668 29,3 49,7 20,4 36.66666,10 50,18 13.33334,8 28,19.333336 44,34 16,14.66666 30,33 42,55 10.66669,20 20.66669,42.33333 30,67 9.33331,24.66667 15,38.66666 17,42 3.33331,2 9,3 17,3 h 13 c 4,-6 6,-9.66666 6,-11 0,-1.33334 -6.66669,-21 -20,-59 C 613.66669,165 599,125 583,83 567,41 558.33331,16.333334 557,9 555.66669,5.6666665 554.33331,3.6666667 553,3 551.66669,2.3333333 546.33331,1.3333334 537,0 c -9.33331,-1.3333334 -23.66669,-1.6666667 -43,-1 -7.33334,0 -32.66666,0 -76,0 -43.33334,0 -84.66666,0.33333331 -124,1 H 116 C 60,0 32,3.333333 32,10 c 0,4.666667 0.666668,9.333332 2,14 3.333332,12.666668 6.666668,19.666668 10,21 2.666668,0.666668 7.666668,1 15,1 h 6 c 18,0 38,1 60,3 9.33333,2 15.66667,6 19,12 2,2.666668 26,95.33333 72,278 46,182.66669 69,279 69,289 0,4.66669 -19,7.66669 -57,9 z" /><path
             id="path262"
             style="fill:none;stroke:#000000;stroke-width:1;stroke-linecap:butt;stroke-linejoin:miter;stroke-miterlimit:10;stroke-dasharray:none;stroke-opacity:0.08900003"
             d="m 228,637 c -22.66667,0 -34.66667,1.33331 -36,4 -0.66667,1.33331 -1,4 -1,8 0,16 3.66667,27 11,33 1.33333,0.66669 6.33333,1 15,1 36,-2 78.33334,-3 127,-3 94,0 148,1 162,3 h 12 c 4,-4 6,-7 6,-9 0,-2 -0.66669,-8 -2,-18 -3.33331,-10 -6.33331,-16.33331 -9,-19 h -38 c -46,-0.66669 -73,-3.66669 -81,-9 -4.66666,-2.66669 -9.33334,-12 -14,-28 C 375.33334,584 353,496 313,336 302.33334,292.66666 291,246.66667 279,198 267,149.33333 258,112.66667 252,88 l -9,-36 c 0,-2.666668 3,-4 9,-4 6,0 25.66666,-0.666668 59,-2 h 17 c 21.33334,0 38.33334,0.333332 51,1 12.66666,0.666668 29,3 49,7 20,4 36.66666,10 50,18 13.33334,8 28,19.333336 44,34 16,14.66666 30,33 42,55 10.66669,20 20.66669,42.33333 30,67 9.33331,24.66667 15,38.66666 17,42 3.33331,2 9,3 17,3 h 13 c 4,-6 6,-9.66666 6,-11 0,-1.33334 -6.66669,-21 -20,-59 C 613.66669,165 599,125 583,83 567,41 558.33331,16.333334 557,9 555.66669,5.6666665 554.33331,3.6666667 553,3 551.66669,2.3333333 546.33331,1.3333334 537,0 c -9.33331,-1.3333334 -23.66669,-1.6666667 -43,-1 -7.33334,0 -32.66666,0 -76,0 -43.33334,0 -84.66666,0.33333331 -124,1 H 116 C 60,0 32,3.333333 32,10 c 0,4.666667 0.666668,9.333332 2,14 3.333332,12.666668 6.666668,19.666668 10,21 2.666668,0.666668 7.666668,1 15,1 h 6 c 18,0 38,1 60,3 9.33333,2 15.66667,6 19,12 2,2.666668 26,95.33333 72,278 46,182.66669 69,279 69,289 0,4.66669 -19,7.66669 -57,9 z" /></g><g
           transform="matrix(0.02476574,0,0,-0.02476574,1670.0868,552.12518)"
           id="g264"><path
             id="path266"
             style="fill:#000000;fill-opacity:1;fill-rule:nonzero;stroke:none"
             d="m 109,429 c -18,0 -32.333336,6 -43,18 -10.666668,12 -16,26.66666 -16,44 0,47.33331 17.666664,88.33331 53,123 35.33334,34.66669 79.33333,52 132,52 60.66666,0 111.33334,-18.66669 152,-56 40.66666,-37.33331 61.33334,-85.66669 62,-145 0,-28.66666 -6.66666,-56 -20,-82 -13.33334,-26 -29.33334,-48.66666 -48,-68 -18.66666,-19.33334 -45.33334,-44 -80,-74 -24,-20.66667 -57.33333,-51.33333 -100,-92 l -59,-56 76,-1 c 104.66669,0 160.33334,1.666664 167,5 4.66666,1.333336 12.66666,31 24,89 v 3 h 40 v -3 C 448.33334,184 444,153.66667 436,95 428,36.333332 423,5.666667 421,3 V 0 H 50 v 19 12 c 0,4.666668 2,9.666668 6,15 4,5.333332 14,17 30,35 19.33334,21.33334 36,40 50,56 6,6.66667 17.33333,19 34,37 16.66667,18 28,30.33333 34,37 6,6.66667 15.66667,17.66667 29,33 13.33333,15.33334 22.66667,26.66666 28,34 5.33334,7.33334 13,17.33334 23,30 10,12.66666 17,23.33334 21,32 4,8.66666 9,18.33334 15,29 6,10.66666 10.33334,21.33334 13,32 2.66666,10.66666 5,20.66666 7,30 2,9.33334 3,20.33334 3,33 0,42 -11.33334,78.33331 -34,109 -22.66666,30.66669 -55,46 -97,46 -22,0 -41.33333,-5.66669 -58,-17 -16.66667,-11.33331 -28.33334,-22.33331 -35,-33 -6.66666,-10.66669 -10,-17 -10,-19 0,-0.66669 1.66666,-1 5,-1 12,0 24.33333,-4.66669 37,-14 12.66667,-9.33331 19,-24.66666 19,-46 0,-16.66666 -5.33333,-30.66666 -16,-42 -10.66667,-11.33334 -25.66667,-17.33334 -45,-18 z" /><path
             id="path268"
             style="fill:none;stroke:#000000;stroke-width:1;stroke-linecap:butt;stroke-linejoin:miter;stroke-miterlimit:10;stroke-dasharray:none;stroke-opacity:0.07430001"
             d="m 109,429 c -18,0 -32.333336,6 -43,18 -10.666668,12 -16,26.66666 -16,44 0,47.33331 17.666664,88.33331 53,123 35.33334,34.66669 79.33333,52 132,52 60.66666,0 111.33334,-18.66669 152,-56 40.66666,-37.33331 61.33334,-85.66669 62,-145 0,-28.66666 -6.66666,-56 -20,-82 -13.33334,-26 -29.33334,-48.66666 -48,-68 -18.66666,-19.33334 -45.33334,-44 -80,-74 -24,-20.66667 -57.33333,-51.33333 -100,-92 l -59,-56 76,-1 c 104.66669,0 160.33334,1.666664 167,5 4.66666,1.333336 12.66666,31 24,89 v 3 h 40 v -3 C 448.33334,184 444,153.66667 436,95 428,36.333332 423,5.666667 421,3 V 0 H 50 v 19 12 c 0,4.666668 2,9.666668 6,15 4,5.333332 14,17 30,35 19.33334,21.33334 36,40 50,56 6,6.66667 17.33333,19 34,37 16.66667,18 28,30.33333 34,37 6,6.66667 15.66667,17.66667 29,33 13.33333,15.33334 22.66667,26.66666 28,34 5.33334,7.33334 13,17.33334 23,30 10,12.66666 17,23.33334 21,32 4,8.66666 9,18.33334 15,29 6,10.66666 10.33334,21.33334 13,32 2.66666,10.66666 5,20.66666 7,30 2,9.33334 3,20.33334 3,33 0,42 -11.33334,78.33331 -34,109 -22.66666,30.66669 -55,46 -97,46 -22,0 -41.33333,-5.66669 -58,-17 -16.66667,-11.33331 -28.33334,-22.33331 -35,-33 -6.66666,-10.66669 -10,-17 -10,-19 0,-0.66669 1.66666,-1 5,-1 12,0 24.33333,-4.66669 37,-14 12.66667,-9.33331 19,-24.66666 19,-46 0,-16.66666 -5.33333,-30.66666 -16,-42 -10.66667,-11.33334 -25.66667,-17.33334 -45,-18 z" /></g><g
           transform="matrix(3.1022513,0,0,3.1022513,-766.19281,-809.66486)"
           id="g270"><path
             id="path272"
             style="fill:none;stroke:#666666;stroke-width:1;stroke-linecap:butt;stroke-linejoin:miter;stroke-miterlimit:10;stroke-dasharray:none;stroke-opacity:1"
             d="m 720,425 h 30" /><path
             id="path274"
             style="fill:none;stroke:#1a1a1a;stroke-width:1;stroke-linecap:butt;stroke-linejoin:miter;stroke-miterlimit:10;stroke-dasharray:none;stroke-opacity:1"
             d="m 760,425 50,0.19" /><path
             id="path276"
             style="fill:none;stroke:#999999;stroke-width:1;stroke-linecap:butt;stroke-linejoin:miter;stroke-miterlimit:10;stroke-dasharray:none;stroke-opacity:1"
             d="m 700,425.19 h 10" /></g><g
           transform="matrix(3.1022513,0,0,3.1022513,-767.74396,-811.21594)"
           id="g278"><text
             id="text282"
             style="font-variant:normal;font-weight:normal;font-size:8px;font-family:LiberationMono;-inkscape-font-specification:LiberationMono;writing-mode:lr-tb;fill:#000000;fill-opacity:1;fill-rule:nonzero;stroke:none"
             transform="translate(721.48438,451)"><tspan
               id="tspan280"
               y="0"
               x="0 4.8007812 9.6015625 14.402344 19.203125 24.003906 28.804688 33.605469 38.40625 43.207031 48.007812 52.808594 57.609375 62.410156 67.210938">acoustic tokens</tspan></text>
</g><g
           transform="matrix(3.1022513,0,0,3.1022513,-766.19281,-809.66486)"
           id="g284"><path
             id="path286"
             style="fill:#ffffff;fill-opacity:1;fill-rule:nonzero;stroke:none"
             d="m 560,280 h 10 v 20 h -10 z" /><path
             id="path288"
             style="fill:none;stroke:#000000;stroke-width:1;stroke-linecap:butt;stroke-linejoin:miter;stroke-miterlimit:10;stroke-dasharray:none;stroke-opacity:1"
             d="m 560,280 h 10 v 20 h -10 z" /><path
             id="path290"
             style="fill:#ffffff;fill-opacity:1;fill-rule:nonzero;stroke:none"
             d="m 490,380 h 10 v 20 h -10 z" /><path
             id="path292"
             style="fill:none;stroke:#000000;stroke-width:1;stroke-linecap:butt;stroke-linejoin:miter;stroke-miterlimit:10;stroke-dasharray:none;stroke-opacity:1"
             d="m 490,380 h 10 v 20 h -10 z" /><path
             id="path294"
             style="fill:#f5f5f5;fill-opacity:1;fill-rule:nonzero;stroke:none"
             d="m 431,445.19 h 10 v 26 h -10 z" /><path
             id="path296"
             style="fill:none;stroke:#666666;stroke-width:1;stroke-linecap:butt;stroke-linejoin:miter;stroke-miterlimit:10;stroke-dasharray:none;stroke-opacity:1"
             d="m 431,445.19 h 10 v 26 h -10 z" /><path
             id="path298"
             style="fill:#b3b3b3;fill-opacity:1;fill-rule:nonzero;stroke:none"
             d="m 451,445.19 h 10 v 26 h -10 z" /><path
             id="path300"
             style="fill:none;stroke:#666666;stroke-width:1;stroke-linecap:butt;stroke-linejoin:miter;stroke-miterlimit:10;stroke-dasharray:none;stroke-opacity:1"
             d="m 451,445.19 h 10 v 26 h -10 z" /><path
             id="path302"
             style="fill:#b3b3b3;fill-opacity:1;fill-rule:nonzero;stroke:none"
             d="m 471,445.19 h 10 v 26 h -10 z" /><path
             id="path304"
             style="fill:none;stroke:#666666;stroke-width:1;stroke-linecap:butt;stroke-linejoin:miter;stroke-miterlimit:10;stroke-dasharray:none;stroke-opacity:1"
             d="m 471,445.19 h 10 v 26 h -10 z" /><path
             id="path306"
             style="fill:#666666;fill-opacity:1;fill-rule:nonzero;stroke:none"
             d="m 491,445.19 h 10 v 26 h -10 z" /><path
             id="path308"
             style="fill:none;stroke:#666666;stroke-width:1;stroke-linecap:butt;stroke-linejoin:miter;stroke-miterlimit:10;stroke-dasharray:none;stroke-opacity:1"
             d="m 491,445.19 h 10 v 26 h -10 z" /><path
             id="path310"
             style="fill:#666666;fill-opacity:1;fill-rule:nonzero;stroke:none"
             d="m 511,445.19 h 10 v 26 h -10 z" /><path
             id="path312"
             style="fill:none;stroke:#666666;stroke-width:1;stroke-linecap:butt;stroke-linejoin:miter;stroke-miterlimit:10;stroke-dasharray:none;stroke-opacity:1"
             d="m 511,445.19 h 10 v 26 h -10 z" /><path
             id="path314"
             style="fill:#666666;fill-opacity:1;fill-rule:nonzero;stroke:none"
             d="m 531,445.19 h 10 v 26 h -10 z" /><path
             id="path316"
             style="fill:none;stroke:#666666;stroke-width:1;stroke-linecap:butt;stroke-linejoin:miter;stroke-miterlimit:10;stroke-dasharray:none;stroke-opacity:1"
             d="m 531,445.19 h 10 v 26 h -10 z" /><path
             id="path318"
             style="fill:none;stroke:#000000;stroke-width:1;stroke-linecap:butt;stroke-linejoin:miter;stroke-miterlimit:10;stroke-dasharray:none;stroke-opacity:1"
             d="m 495,410 v -5.13" /><path
             id="path320"
             style="fill:#000000;fill-opacity:1;fill-rule:nonzero;stroke:none"
             d="m 495,401.12 2.5,5 -2.5,-1.25 -2.5,1.25 z" /><path
             id="path322"
             style="fill:none;stroke:#000000;stroke-width:1;stroke-linecap:butt;stroke-linejoin:miter;stroke-miterlimit:10;stroke-dasharray:none;stroke-opacity:1"
             d="m 495,401.12 2.5,5 -2.5,-1.25 -2.5,1.25 z" /><path
             id="path324"
             style="fill:#ffffff;fill-opacity:1;fill-rule:nonzero;stroke:none"
             d="m 451.75,410 h 86.5 c 0.39783,0 0.78046,0.0761 1.14795,0.22833 0.36755,0.15225 0.69202,0.36902 0.97333,0.65033 0.28131,0.28128 0.4981,0.60572 0.65033,0.97324 0.15222,0.36755 0.22833,0.75024 0.22839,1.1481 v 14 c -6e-5,0.3978 -0.0762,0.78046 -0.22839,1.14798 -0.15223,0.36752 -0.36902,0.69196 -0.65033,0.9733 -0.28131,0.28128 -0.60578,0.49807 -0.97333,0.65033 -0.36749,0.15225 -0.75012,0.22836 -1.14795,0.22839 h -86.5 c -0.39786,-3e-5 -0.78058,-0.0761 -1.14813,-0.22839 -0.36753,-0.15226 -0.69196,-0.36905 -0.97324,-0.65033 -0.28134,-0.28134 -0.49811,-0.60578 -0.65033,-0.9733 C 448.82608,427.78046 448.74997,427.3978 448.75,427 v -14 c -3e-5,-0.39786 0.0761,-0.78055 0.22833,-1.1481 0.15219,-0.36752 0.36896,-0.69196 0.6503,-0.97324 0.28128,-0.28131 0.60571,-0.49808 0.97324,-0.65033 C 450.96942,410.07611 451.35214,410 451.75,410 Z" /><path
             id="path326"
             style="fill:none;stroke:#000000;stroke-width:1;stroke-linecap:butt;stroke-linejoin:miter;stroke-miterlimit:10;stroke-dasharray:none;stroke-opacity:1"
             d="m 451.75,410 h 86.5 c 0.39783,0 0.78046,0.0761 1.14795,0.22833 0.36755,0.15225 0.69202,0.36902 0.97333,0.65033 0.28131,0.28128 0.4981,0.60572 0.65033,0.97324 0.15222,0.36755 0.22833,0.75024 0.22839,1.1481 v 14 c -6e-5,0.3978 -0.0762,0.78046 -0.22839,1.14798 -0.15223,0.36752 -0.36902,0.69196 -0.65033,0.9733 -0.28131,0.28128 -0.60578,0.49807 -0.97333,0.65033 -0.36749,0.15225 -0.75012,0.22836 -1.14795,0.22839 h -86.5 c -0.39786,-3e-5 -0.78058,-0.0761 -1.14813,-0.22839 -0.36753,-0.15226 -0.69196,-0.36905 -0.97324,-0.65033 -0.28134,-0.28134 -0.49811,-0.60578 -0.65033,-0.9733 C 448.82608,427.78046 448.74997,427.3978 448.75,427 v -14 c -3e-5,-0.39786 0.0761,-0.78055 0.22833,-1.1481 0.15219,-0.36752 0.36896,-0.69196 0.6503,-0.97324 0.28128,-0.28131 0.60571,-0.49808 0.97324,-0.65033 C 450.96942,410.07611 451.35214,410 451.75,410 Z" /></g><g
           transform="matrix(3.1022513,0,0,3.1022513,-767.74396,-811.21594)"
           id="g328"><text
             id="text332"
             style="font-variant:normal;font-weight:normal;font-size:8px;font-family:LiberationMono;-inkscape-font-specification:LiberationMono;writing-mode:lr-tb;fill:#000000;fill-opacity:1;fill-rule:nonzero;stroke:none"
             transform="translate(459.48438,423)"><tspan
               id="tspan330"
               y="0"
               x="0 4.8007812 9.6015625 14.402344 19.203125 24.003906 28.804688 33.605469 38.40625 43.207031 48.007812 52.808594 57.609375 62.410156 67.210938">patch embedding</tspan></text>
</g><g
           transform="matrix(3.1022513,0,0,3.1022513,-766.19281,-809.66486)"
           id="g334"><path
             id="path336"
             style="fill:none;stroke:#000000;stroke-width:1;stroke-linecap:butt;stroke-linejoin:miter;stroke-miterlimit:10;stroke-dasharray:none;stroke-opacity:1"
             d="M 430,441 H 559.5" /><path
             id="path338"
             style="fill:#ffffff;fill-opacity:1;fill-rule:nonzero;stroke:none"
             d="m 510,380 h 10 v 20 h -10 z" /><path
             id="path340"
             style="fill:none;stroke:#000000;stroke-width:1;stroke-linecap:butt;stroke-linejoin:miter;stroke-miterlimit:10;stroke-dasharray:none;stroke-opacity:1"
             d="m 510,380 h 10 v 20 h -10 z" /><path
             id="path342"
             style="fill:#ffffff;fill-opacity:1;fill-rule:nonzero;stroke:none"
             d="m 580,380 h 10 v 20 h -10 z" /><path
             id="path344"
             style="fill:none;stroke:#000000;stroke-width:1;stroke-linecap:butt;stroke-linejoin:miter;stroke-miterlimit:10;stroke-dasharray:none;stroke-opacity:1"
             d="m 580,380 h 10 v 20 h -10 z" /></g><g
           transform="matrix(3.1022513,0,0,3.1022513,-767.74396,-811.21594)"
           id="g346"><text
             id="text350"
             style="font-variant:normal;font-weight:normal;font-size:12px;font-family:LiberationSans;-inkscape-font-specification:LiberationSans;writing-mode:lr-tb;fill:#000000;fill-opacity:1;fill-rule:nonzero;stroke:none"
             transform="translate(534.98438,394)"><tspan
               id="tspan348"
               y="0"
               x="0 3.3339844 6.6679688">...</tspan></text>
</g><g
           transform="matrix(3.1022513,0,0,3.1022513,-766.19281,-809.66486)"
           id="g352"><path
             id="path354"
             style="fill:#ffffff;fill-opacity:1;fill-rule:nonzero;stroke:none"
             d="m 560,380 h 10 v 20 h -10 z" /><path
             id="path356"
             style="fill:none;stroke:#000000;stroke-width:1;stroke-linecap:butt;stroke-linejoin:miter;stroke-miterlimit:10;stroke-dasharray:none;stroke-opacity:1"
             d="m 560,380 h 10 v 20 h -10 z" /><path
             id="path358"
             style="fill:none;stroke:#000000;stroke-width:1;stroke-linecap:butt;stroke-linejoin:miter;stroke-miterlimit:10;stroke-dasharray:none;stroke-opacity:1"
             d="m 495,441 v -6.88" /><path
             id="path360"
             style="fill:#000000;fill-opacity:1;fill-rule:nonzero;stroke:none"
             d="m 495,431.12 2,4 -2,-1 -2,1 z" /><path
             id="path362"
             style="fill:none;stroke:#000000;stroke-width:1;stroke-linecap:butt;stroke-linejoin:miter;stroke-miterlimit:10;stroke-dasharray:none;stroke-opacity:1"
             d="m 495,431.12 2,4 -2,-1 -2,1 z" /><path
             id="path364"
             style="fill:#666666;fill-opacity:1;fill-rule:nonzero;stroke:none"
             d="m 549.5,445.19 h 10 v 26 h -10 z" /><path
             id="path366"
             style="fill:none;stroke:#666666;stroke-width:1;stroke-linecap:butt;stroke-linejoin:miter;stroke-miterlimit:10;stroke-dasharray:none;stroke-opacity:1"
             d="m 549.5,445.19 h 10 v 26 h -10 z" /><path
             id="path368"
             style="fill:none;stroke:#000000;stroke-width:1;stroke-linecap:butt;stroke-linejoin:miter;stroke-miterlimit:10;stroke-dasharray:none;stroke-opacity:1"
             d="m 540,380 -0.09,-5.13" /><path
             id="path370"
             style="fill:#000000;fill-opacity:1;fill-rule:nonzero;stroke:none"
             d="m 539.84998,371.12 2.58001,4.95001 -2.52002,-1.20001 -2.47998,1.29 z" /><path
             id="path372"
             style="fill:none;stroke:#000000;stroke-width:1;stroke-linecap:butt;stroke-linejoin:miter;stroke-miterlimit:10;stroke-dasharray:none;stroke-opacity:1"
             d="m 539.84998,371.12 2.58001,4.95001 -2.52002,-1.20001 -2.47998,1.29 z" /></g><g
           transform="matrix(3.1022513,0,0,3.1022513,-767.74396,-811.21594)"
           id="g374"><text
             id="text378"
             style="font-variant:normal;font-weight:normal;font-size:8px;font-family:LiberationMono;-inkscape-font-specification:LiberationMono;writing-mode:lr-tb;fill:#000000;fill-opacity:1;fill-rule:nonzero;stroke:none"
             transform="translate(338.98438,283)"><tspan
               id="tspan376"
               y="0"
               x="0 4.8007812 9.6015625 14.402344 19.203125 24.003906 28.804688 33.605469 38.40625 43.207031 48.007812 52.808594 57.609375 62.410156 67.210938">cross-attention</tspan></text>
</g></g></g></g></svg>